<?xml version="1.0" encoding="UTF-8" standalone="no"?>
<!-- Created with Inkscape (http://www.inkscape.org/) -->

<svg
   xmlns:dc="http://purl.org/dc/elements/1.1/"
   xmlns:cc="http://creativecommons.org/ns#"
   xmlns:rdf="http://www.w3.org/1999/02/22-rdf-syntax-ns#"
   xmlns:svg="http://www.w3.org/2000/svg"
   xmlns="http://www.w3.org/2000/svg"
   xmlns:xlink="http://www.w3.org/1999/xlink"
   xmlns:sodipodi="http://sodipodi.sourceforge.net/DTD/sodipodi-0.dtd"
   xmlns:inkscape="http://www.inkscape.org/namespaces/inkscape"
   version="1.0"
   id="svg2"
   sodipodi:version="0.32"
   inkscape:version="0.48.1 r9760"
   sodipodi:docname="comparethepython-logo-inkscape.svg"
   width="653.5553"
   height="92.49633">
  <metadata
     id="metadata371">
    <rdf:RDF>
      <cc:Work
         rdf:about="">
        <dc:format>image/svg+xml</dc:format>
        <dc:type
           rdf:resource="http://purl.org/dc/dcmitype/StillImage" />
      </cc:Work>
    </rdf:RDF>
  </metadata>
  <sodipodi:namedview
     inkscape:window-height="747"
     inkscape:window-width="1280"
     inkscape:pageshadow="2"
     inkscape:pageopacity="0"
     guidetolerance="10.0"
     gridtolerance="10.0"
     objecttolerance="10.0"
     borderopacity="1.0"
     bordercolor="#666666"
     pagecolor="#ff91ff"
     id="base"
     inkscape:zoom="0.70710678"
     inkscape:cx="483.96842"
     inkscape:cy="-75.082681"
     inkscape:window-x="0"
     inkscape:window-y="0"
     inkscape:current-layer="svg2"
     width="210mm"
     height="40mm"
     units="mm"
     showgrid="false"
     inkscape:object-nodes="false"
     inkscape:window-maximized="1"
     fit-margin-top="0"
     fit-margin-left="0"
     fit-margin-right="0"
     fit-margin-bottom="0" />
  <defs
     id="defs4">
    <linearGradient
       id="linearGradient2795">
      <stop
         style="stop-color:#b8b8b8;stop-opacity:0.49803922;"
         offset="0"
         id="stop2797" />
      <stop
         style="stop-color:#7f7f7f;stop-opacity:0;"
         offset="1"
         id="stop2799" />
    </linearGradient>
    <linearGradient
       id="linearGradient2787">
      <stop
         style="stop-color:#7f7f7f;stop-opacity:0.5;"
         offset="0"
         id="stop2789" />
      <stop
         style="stop-color:#7f7f7f;stop-opacity:0;"
         offset="1"
         id="stop2791" />
    </linearGradient>
    <linearGradient
       id="linearGradient3676">
      <stop
         style="stop-color:#b2b2b2;stop-opacity:0.5;"
         offset="0"
         id="stop3678" />
      <stop
         style="stop-color:#b3b3b3;stop-opacity:0;"
         offset="1"
         id="stop3680" />
    </linearGradient>
    <linearGradient
       id="linearGradient3236">
      <stop
         style="stop-color:#f4f4f4;stop-opacity:1"
         offset="0"
         id="stop3244" />
      <stop
         style="stop-color:white;stop-opacity:1"
         offset="1"
         id="stop3240" />
    </linearGradient>
    <linearGradient
       id="linearGradient4671">
      <stop
         style="stop-color:#ffd43b;stop-opacity:1;"
         offset="0"
         id="stop4673" />
      <stop
         style="stop-color:#ffe873;stop-opacity:1"
         offset="1"
         id="stop4675" />
    </linearGradient>
    <linearGradient
       id="linearGradient4689">
      <stop
         style="stop-color:#5a9fd4;stop-opacity:1;"
         offset="0"
         id="stop4691" />
      <stop
         style="stop-color:#306998;stop-opacity:1;"
         offset="1"
         id="stop4693" />
    </linearGradient>
    <linearGradient
       x1="224.23996"
       y1="144.75717"
       x2="-65.308502"
       y2="144.75717"
       id="linearGradient2987"
       xlink:href="#linearGradient4671"
       gradientUnits="userSpaceOnUse"
       gradientTransform="translate(100.2702,99.61116)" />
    <linearGradient
       x1="172.94208"
       y1="77.475983"
       x2="26.670298"
       y2="76.313133"
       id="linearGradient2990"
       xlink:href="#linearGradient4689"
       gradientUnits="userSpaceOnUse"
       gradientTransform="translate(100.2702,99.61116)" />
    <linearGradient
       inkscape:collect="always"
       xlink:href="#linearGradient4689"
       id="linearGradient2587"
       gradientUnits="userSpaceOnUse"
       gradientTransform="translate(100.2702,99.61116)"
       x1="172.94208"
       y1="77.475983"
       x2="26.670298"
       y2="76.313133" />
    <linearGradient
       inkscape:collect="always"
       xlink:href="#linearGradient4671"
       id="linearGradient2589"
       gradientUnits="userSpaceOnUse"
       gradientTransform="translate(100.2702,99.61116)"
       x1="224.23996"
       y1="144.75717"
       x2="-65.308502"
       y2="144.75717" />
    <linearGradient
       inkscape:collect="always"
       xlink:href="#linearGradient4689"
       id="linearGradient2248"
       gradientUnits="userSpaceOnUse"
       gradientTransform="translate(100.2702,99.61116)"
       x1="172.94208"
       y1="77.475983"
       x2="26.670298"
       y2="76.313133" />
    <linearGradient
       inkscape:collect="always"
       xlink:href="#linearGradient4671"
       id="linearGradient2250"
       gradientUnits="userSpaceOnUse"
       gradientTransform="translate(100.2702,99.61116)"
       x1="224.23996"
       y1="144.75717"
       x2="-65.308502"
       y2="144.75717" />
    <linearGradient
       inkscape:collect="always"
       xlink:href="#linearGradient4671"
       id="linearGradient2255"
       gradientUnits="userSpaceOnUse"
       gradientTransform="matrix(0.562541,0,0,0.567972,-11.5974,-7.60954)"
       x1="224.23996"
       y1="144.75717"
       x2="-65.308502"
       y2="144.75717" />
    <linearGradient
       inkscape:collect="always"
       xlink:href="#linearGradient4689"
       id="linearGradient2258"
       gradientUnits="userSpaceOnUse"
       gradientTransform="matrix(0.562541,0,0,0.567972,-11.5974,-7.60954)"
       x1="172.94208"
       y1="76.176224"
       x2="26.670298"
       y2="76.313133" />
    <radialGradient
       inkscape:collect="always"
       xlink:href="#linearGradient2795"
       id="radialGradient2801"
       cx="61.518883"
       cy="132.28575"
       fx="61.518883"
       fy="132.28575"
       r="29.036913"
       gradientTransform="matrix(1,0,0,0.177966,0,108.7434)"
       gradientUnits="userSpaceOnUse" />
    <linearGradient
       inkscape:collect="always"
       xlink:href="#linearGradient4671"
       id="linearGradient3845"
       gradientUnits="userSpaceOnUse"
       gradientTransform="matrix(0.562541,0,0,-0.567972,-39.319388,126.46921)"
       x1="112.03143"
       y1="137.38693"
       x2="194.86052"
       y2="148.75818" />
    <linearGradient
       inkscape:collect="always"
       xlink:href="#linearGradient4671-7"
       id="linearGradient3845-7"
       gradientUnits="userSpaceOnUse"
       gradientTransform="matrix(0.562541,0,0,-0.567972,-35.315784,155.68802)"
       x1="112.03143"
       y1="137.38693"
       x2="194.86052"
       y2="148.75818" />
    <linearGradient
       id="linearGradient4671-7">
      <stop
         style="stop-color:#ffd43b;stop-opacity:1;"
         offset="0"
         id="stop4673-4" />
      <stop
         style="stop-color:#ffe873;stop-opacity:1"
         offset="1"
         id="stop4675-8" />
    </linearGradient>
    <linearGradient
       y2="140.0434"
       x2="113.15636"
       y1="155.43898"
       x1="189.96465"
       gradientTransform="matrix(-0.562541,0,0,-0.567972,192.53238,126.46922)"
       gradientUnits="userSpaceOnUse"
       id="linearGradient3862"
       xlink:href="#linearGradient4689"
       inkscape:collect="always" />
    <linearGradient
       y2="140.0434"
       x2="113.15636"
       y1="155.43898"
       x1="189.96465"
       gradientTransform="matrix(-0.562541,0,0,-0.567972,196.53598,157.68803)"
       gradientUnits="userSpaceOnUse"
       id="linearGradient3862-1"
       xlink:href="#linearGradient4689-2"
       inkscape:collect="always" />
    <linearGradient
       id="linearGradient4689-2">
      <stop
         style="stop-color:#5a9fd4;stop-opacity:1;"
         offset="0"
         id="stop4691-8" />
      <stop
         style="stop-color:#306998;stop-opacity:1;"
         offset="1"
         id="stop4693-1" />
    </linearGradient>
    <linearGradient
       inkscape:collect="always"
       xlink:href="#linearGradient4671-3"
       id="linearGradient3845-1"
       gradientUnits="userSpaceOnUse"
       gradientTransform="matrix(0.562541,0,0,-0.567972,-35.315784,155.68802)"
       x1="112.03143"
       y1="137.38693"
       x2="194.86052"
       y2="148.75818" />
    <linearGradient
       id="linearGradient4671-3">
      <stop
         style="stop-color:#ffd43b;stop-opacity:1;"
         offset="0"
         id="stop4673-1" />
      <stop
         style="stop-color:#ffe873;stop-opacity:1"
         offset="1"
         id="stop4675-3" />
    </linearGradient>
    <linearGradient
       y2="148.75818"
       x2="194.86052"
       y1="137.38693"
       x1="112.03143"
       gradientTransform="matrix(0.562541,0,0,-0.567972,-35.315784,157.68802)"
       gradientUnits="userSpaceOnUse"
       id="linearGradient4141"
       xlink:href="#linearGradient4671-3"
       inkscape:collect="always" />
    <filter
       inkscape:collect="always"
       id="filter4219"
       color-interpolation-filters="sRGB">
      <feGaussianBlur
         inkscape:collect="always"
         stdDeviation="1.8214151"
         id="feGaussianBlur4221" />
    </filter>
  </defs>
  <path
     style="fill:#00001a;fill-opacity:0.50196078;filter:url(#filter4219)"
     d="m 30.527646,4.3749369 c -4.365019,0.05638 -8.506335,0.783445 -12.75,2.03125 C 10.689984,8.4908669 4.3713962,12.764847 4.3713962,20.031187 l 0,25.53125 c 10e-7,7.346517 6.0704168,13.625 13.4062498,13.625 l 13.09375,0 16.75,0.0625 0,3.4375 c 0,0 -15.585488,-0.09375 -24.84375,-0.09375 -8.472543,0 -14.2024018,5.386893 -16.4374998,13.46875 -2.1541673,7.30689 -1.875,12.0625 -1.875,12.0625 l 43.1562498,0 10.0625,-0.0312 c 7.80237,0 11.48047,-5.83631 13.40625,-13.59375 2.68022,-10.774211 2.79933,-18.851114 0,-27.25 -2.70999,-8.158392 -5.61379,-13.5938 -13.40625,-13.5938 l -13.40625,0 -13.09375,0 0,-3.40625 26.78125,0 0,-10.21875 c 3e-6,-7.73739 -6.656095,-11.6706101 -13.40625,-13.6250001 -5.077506,-1.473315 -9.666231,-2.087627 -14.03125,-2.03125 z m 92.156254,0 c -4.36502,-0.05638 -8.95374,0.557935 -14.03125,2.03125 -6.75016,1.95439 -13.406264,5.8876111 -13.406254,13.6250001 l 0,10.21875 26.781254,0 0,3.40625 -13.09375,0 -13.406254,0 c -7.792461,0 -10.69626,5.435408 -13.40625,13.59375 -2.79933,8.398886 -2.68022,16.475796 0,27.25 1.92578,7.75744 5.603879,13.59375 13.40625,13.59375 l 10.062504,0.0312 43.15625,0 c 0,0 0.27917,-4.75561 -1.875,-12.0625 -2.23509,-8.08185 -7.96497,-13.46875 -16.4375,-13.46875 -9.25826,0 -24.84375,0.09375 -24.84375,0.09375 l 0,-3.4375 16.75,-0.0625 13.09375,0 c 7.33582,0 13.40625,-6.278483 13.40625,-13.625 l 0,-25.53125 c 0,-7.266339 -6.3186,-11.5403201 -13.40625,-13.6250001 -4.24366,-1.247805 -8.38498,-1.974873 -12.75,-2.03125 z M 45.746396,13.249937 c 0.168701,-0.01753 0.326903,0 0.5,0 2.779475,0 5.031248,2.29865 5.03125,5.125 0,2.81633 -2.251772,5.093747 -5.03125,5.09375 -2.769553,0 -5.031248,-2.27742 -5.03125,-5.09375 0,-2.649703 2.000733,-4.862112 4.53125,-5.125 z m 60.718754,0 c 0.16917,-0.01753 0.32628,0 0.5,0 2.76955,0 5.03125,2.29865 5.03125,5.125 0,2.81633 -2.26169,5.09375 -5.03125,5.09375 -2.77947,-3e-6 -5.03125,-2.27742 -5.03125,-5.09375 1e-5,-2.649703 1.99365,-4.862112 4.53125,-5.125 z m 261.21875,15.0625 0,30.40625 3.625,0 0,-12.375 c -10e-6,-2.135402 0.5677,-3.825505 1.6875,-5.0625 1.11978,-1.236961 2.65363,-1.843731 4.59375,-1.84375 1.61457,1.9e-5 2.81769,0.502623 3.625,1.53125 0.80727,1.028663 1.21873,2.585953 1.21875,4.65625 l 0,13.09375 3.59375,0 0,-13.21875 c -2e-5,-3.020817 -0.64846,-5.294252 -1.9375,-6.84375 -1.28908,-1.562478 -3.20575,-2.343728 -5.71875,-2.34375 -1.52345,2.2e-5 -2.85939,0.31773 -4.03125,0.96875 -1.15886,0.651062 -2.17188,1.622416 -3.03125,2.9375 l 0,-11.90625 -3.625,0 z m 117.5625,0 0,30.40625 6.96875,0 0,-10.78125 c -10e-6,-1.992175 0.41666,-3.536444 1.25,-4.65625 0.83332,-1.132796 1.97915,-1.687483 3.4375,-1.6875 0.59894,1.7e-5 1.15623,0.1146 1.625,0.375 0.46873,0.247412 0.8203,0.606787 1.09375,1.0625 0.20832,0.338557 0.35936,0.846369 0.4375,1.5625 0.0911,0.716159 0.12498,2.0547 0.125,3.96875 l 0,7.96875 0,2.1875 7.03125,0 0,-13.34375 c -3e-5,-2.955713 -0.65367,-5.200502 -1.96875,-6.75 -1.30211,-1.549458 -3.22398,-2.312478 -5.75,-2.3125 -1.43231,2.2e-5 -2.72137,0.294293 -3.90625,0.90625 -1.18491,0.598979 -2.32032,1.536478 -3.375,2.8125 l 0,-11.71875 -6.96875,0 z m -131.1875,2.3125 0,6.21875 -2.625,0 0,2.78125 2.625,0 0,11.875 c 0,2.734379 0.53906,4.614586 1.59375,5.65625 1.05468,1.028646 2.97655,1.5625 5.75,1.5625 l 3.6875,0 0,-3.03125 -3.6875,0 c -1.49741,3e-6 -2.50522,-0.242184 -3,-0.75 -0.48178,-0.507808 -0.71876,-1.65364 -0.71875,-3.4375 l 0,-11.875 7.40625,0 0,-2.78125 -7.40625,0 0,-6.21875 -3.625,0 z m 114.6875,0 0,6.21875 -2.75,0 -7,0 -5,14.84375 -5.875,-14.84375 -7,0 9.75,22.71875 -0.1875,0.59375 c -0.29949,0.97656 -0.73438,1.653643 -1.28125,2.03125 -0.53386,0.3776 -1.37761,0.562496 -2.5625,0.5625 l -2.1875,0 0,4.59375 4.03125,0 c 2.01822,-9e-6 3.65103,-0.492196 4.875,-1.46875 1.23697,-0.963548 2.29426,-2.658859 3.21875,-5.09375 l 8.46875,-22 0,3.0625 3.5,0 0,9.28125 c 0,2.760422 0.57291,4.716149 1.71875,5.875 1.15885,1.145834 3.11457,1.71875 5.875,1.71875 l 6,0 0,-5 -3.59375,0 c -1.19793,5e-6 -2.00262,-0.179682 -2.40625,-0.53125 -0.40366,-0.364577 -0.62501,-1.046868 -0.625,-2.0625 l 0,-9.28125 7.21875,0 0,-5 -7.21875,0 0,-6.21875 -6.96875,0 z m -289.53125,5.6875 c -3.94532,2.2e-5 -7.02344,1.000021 -9.25,3.03125 -2.22657,2.018247 -3.34375,4.830744 -3.34375,8.4375 0,3.606778 1.11718,6.437504 3.34375,8.46875 2.22656,2.01823 5.30468,3.031249 9.25,3.03125 1.1328,-1e-6 2.25519,-0.104167 3.375,-0.3125 1.13279,-0.195313 2.24998,-0.502604 3.34375,-0.90625 l 0,-5.71875 c -0.83335,0.638027 -1.72919,1.111984 -2.71875,1.4375 -0.97658,0.325525 -2.03127,0.500004 -3.125,0.5 -1.95314,4e-6 -3.46876,-0.585932 -4.5625,-1.71875 -1.08074,-1.145826 -1.62501,-2.73697 -1.625,-4.78125 -1e-5,-2.044258 0.54426,-3.617173 1.625,-4.75 1.09374,-1.145817 2.60936,-1.718733 4.5625,-1.71875 1.02863,1.7e-5 2.01821,0.156267 2.96875,0.46875 0.96352,0.312517 1.92446,0.786474 2.875,1.4375 l 0,-5.6875 c -1.10679,-0.403624 -2.22398,-0.710916 -3.34375,-0.90625 -1.10679,-0.208311 -2.22918,-0.312478 -3.375,-0.3125 z m 21.21875,0 c -3.77605,2.2e-5 -6.73959,1.000021 -8.875,3.03125 -2.1224,2.031267 -3.1875,4.843765 -3.1875,8.4375 0,3.593757 1.0651,6.406255 3.1875,8.4375 2.13541,2.03125 5.09895,3.062499 8.875,3.0625 3.763,-1e-6 6.7031,-1.03125 8.8125,-3.0625 2.12237,-2.031245 3.15622,-4.843743 3.15625,-8.4375 -3e-5,-3.593735 -1.03388,-6.406233 -3.15625,-8.4375 -2.1094,-2.031229 -5.0495,-3.031228 -8.8125,-3.03125 z m 28.71875,0 c -1.34116,2.2e-5 -2.56772,0.312522 -3.6875,0.9375 -1.10678,0.625021 -2.10939,1.544291 -2.96875,2.78125 l 0,-3.1875 -7.03125,0 0,21.875 7.03125,0 0,-10.78125 c -1e-5,-2.044258 0.36457,-3.593736 1.09375,-4.6875 0.72915,-1.106754 1.78384,-1.656233 3.125,-1.65625 1.06769,1.7e-5 1.80207,0.328142 2.21875,1.03125 0.41665,0.69012 0.62498,2.265639 0.625,4.6875 l 0,11.40625 7.03125,0 0,-10.75 c 0.026,-2.0703 0.40883,-3.656236 1.125,-4.75 0.72914,-1.093733 1.73435,-1.624983 3.0625,-1.625 1.0156,1.7e-5 1.76299,0.328142 2.21875,1.03125 0.4557,0.69012 0.68747,1.825535 0.6875,3.375 -3e-5,0.338554 -0.0183,0.59897 -0.0312,0.78125 -3e-5,0.182303 0.013,0.361991 0,0.53125 l 0,11.40625 7.03125,0 0,-13.34375 c -4e-5,-2.955713 -0.68493,-5.200502 -2,-6.75 -1.31514,-1.549458 -3.20576,-2.312478 -5.71875,-2.3125 -1.45836,2.2e-5 -2.80732,0.346376 -4.03125,1.0625 -1.21096,0.703146 -2.27086,1.739603 -3.15625,3.09375 -0.59898,-1.315085 -1.46617,-2.333313 -2.625,-3.0625 -1.15887,-0.729145 -2.4896,-1.093728 -4,-1.09375 z m 40.3125,0 c -1.52345,2.2e-5 -2.85939,0.294293 -4.03125,0.90625 -1.17189,0.598979 -2.25522,1.536478 -3.21875,2.8125 l 0,-3.1875 -6.96875,0 0,30.1875 6.96875,0 0,-11.5 c 0.96353,1.276044 2.04686,2.231772 3.21875,2.84375 1.17186,0.598958 2.5078,0.906249 4.03125,0.90625 2.69529,-1e-6 4.92446,-1.083333 6.65625,-3.21875 1.73174,-2.148433 2.59372,-4.908847 2.59375,-8.28125 -3e-5,-3.372382 -0.86201,-6.114566 -2.59375,-8.25 -1.73179,-2.148416 -3.96096,-3.218728 -6.65625,-3.21875 z m 21.75,0 c -1.51043,2.2e-5 -3.02084,0.08596 -4.53125,0.28125 -1.51042,0.182314 -3.00261,0.447938 -4.5,0.8125 l 0,5.34375 c 1.10677,-0.598942 2.30468,-1.044254 3.59375,-1.34375 1.28905,-0.299462 2.69009,-0.437482 4.1875,-0.4375 1.84895,1.8e-5 3.19009,0.260434 4.0625,0.78125 0.87238,0.507829 1.31248,1.299495 1.3125,2.40625 l 0,0.5625 -4.125,0 c -3.77605,1.4e-5 -6.54167,0.583347 -8.3125,1.78125 -1.75782,1.197928 -2.625,3.091155 -2.625,5.65625 0,2.109379 0.6875,3.828128 2.09375,5.15625 1.41927,1.315104 3.26562,1.968749 5.53125,1.96875 1.67968,-1e-6 3.10936,-0.307292 4.28125,-0.90625 1.17186,-0.611978 2.21873,-1.578123 3.15625,-2.90625 l 0,3.25 7.0625,0 0,-12.5 c -2e-5,-3.502588 -0.89846,-6.013002 -2.65625,-7.5625 -1.74481,-1.562478 -4.58595,-2.343728 -8.53125,-2.34375 z m 30,0 c -1.62762,2.2e-5 -3.01564,0.33596 -4.1875,1 -1.15887,0.651062 -2.19532,1.692728 -3.09375,3.125 l 0,-3.59375 -7,0 0,21.875 7,0 0,-10.09375 c -10e-6,-2.148425 0.47395,-3.791653 1.4375,-4.9375 0.97655,-1.158838 2.35936,-1.749983 4.15625,-1.75 0.61196,1.7e-5 1.21352,0.07554 1.8125,0.21875 0.61196,0.130225 1.23175,0.338558 1.84375,0.625 l -0.0312,-6.3125 c -0.52085,-0.06508 -0.91408,-0.111957 -1.1875,-0.125 -0.27346,-0.02602 -0.51564,-0.03123 -0.75,-0.03125 z m 13.96875,0 c -3.77605,2.2e-5 -6.7448,1.018251 -8.90625,3.0625 -2.14844,2.044288 -3.21875,4.838556 -3.21875,8.40625 0,3.63282 1.09375,6.481775 3.28125,8.5 2.20051,2.005209 5.29166,2.999999 9.25,3 1.65363,-1e-6 3.28384,-0.17448 4.9375,-0.5 1.65362,-0.3125 3.31508,-0.781249 4.96875,-1.40625 l 0,-5.375 c -1.62763,0.885423 -3.20054,1.526047 -4.75,1.96875 -1.53648,0.429692 -3.05991,0.656254 -4.53125,0.65625 -1.82293,4e-6 -3.23439,-0.398433 -4.25,-1.21875 -1.01563,-0.820306 -1.61199,-2.046868 -1.78125,-3.6875 l 16.34375,0 0,-2 c -3e-5,-3.463527 -1.02346,-6.24217 -3.09375,-8.3125 -2.05731,-2.070291 -4.81252,-3.093728 -8.25,-3.09375 z m 65.1875,0 c -3.28126,2.2e-5 -5.8724,1.046896 -7.8125,3.15625 -1.92709,2.096371 -2.90625,4.950535 -2.90625,8.53125 0,3.463549 1.03125,6.187505 3.0625,8.21875 2.04426,2.03125 4.79166,3.062499 8.28125,3.0625 1.39321,-1e-6 2.77082,-0.151042 4.125,-0.4375 1.35415,-0.286458 2.67967,-0.703124 3.96875,-1.25 l 0,-3.40625 c -1.27606,0.677087 -2.57294,1.192712 -3.875,1.53125 -1.28908,0.338544 -2.61981,0.500002 -4,0.5 -2.38282,2e-6 -4.25261,-0.648434 -5.59375,-1.9375 -1.32813,-1.302078 -2.06251,-3.182284 -2.21875,-5.65625 l 16.53125,0 0,-1.75 c -2e-5,-3.255193 -0.87502,-5.830712 -2.59375,-7.71875 -1.70575,-1.90102 -4.02606,-2.843728 -6.96875,-2.84375 z m 31.1875,0 c -1.52345,2.2e-5 -2.85939,0.294293 -4.03125,0.90625 -1.17189,0.598979 -2.25522,1.536478 -3.21875,2.8125 l 0,-3.1875 -6.96875,0 0,30.1875 6.96875,0 0,-11.5 c 0.96353,1.276044 2.04686,2.231772 3.21875,2.84375 1.17186,0.598958 2.5078,0.906249 4.03125,0.90625 2.69529,-1e-6 4.92446,-1.083333 6.65625,-3.21875 1.73174,-2.148433 2.59372,-4.908847 2.59375,-8.28125 -3e-5,-3.372382 -0.86201,-6.114566 -2.59375,-8.25 -1.73179,-2.148416 -3.96096,-3.218728 -6.65625,-3.21875 z m 90.59375,0 c -3.77605,2.2e-5 -6.73959,1.000021 -8.875,3.03125 -2.1224,2.031267 -3.15625,4.843765 -3.15625,8.4375 0,3.593757 1.03385,6.406255 3.15625,8.4375 2.13541,2.03125 5.09895,3.062499 8.875,3.0625 3.763,-1e-6 6.7031,-1.03125 8.8125,-3.0625 2.12237,-2.031245 3.18747,-4.843743 3.1875,-8.4375 -3e-5,-3.593735 -1.06513,-6.406233 -3.1875,-8.4375 -2.1094,-2.031229 -5.0495,-3.031228 -8.8125,-3.03125 z m 29.375,0 c -1.43231,2.2e-5 -2.75262,0.294293 -3.9375,0.90625 -1.18491,0.598979 -2.28907,1.536478 -3.34375,2.8125 l 0,-3.1875 -7,0 0,21.875 7,0 0,-10.78125 c -10e-6,-1.992175 0.41666,-3.536444 1.25,-4.65625 0.83332,-1.132796 1.97915,-1.687483 3.4375,-1.6875 0.59894,1.7e-5 1.12498,0.1146 1.59375,0.375 0.46873,0.247412 0.85155,0.606787 1.125,1.0625 0.20832,0.338557 0.32811,0.846369 0.40625,1.5625 0.0911,0.716159 0.15623,2.018241 0.15625,3.90625 l 0,8.03125 0,2.1875 7.03125,0 0,-13.34375 c -3e-5,-2.955713 -0.65367,-5.200502 -1.96875,-6.75 -1.30211,-1.549458 -3.22398,-2.312478 -5.75,-2.3125 z m 32.8125,0 c -3.41147,2.2e-5 -6.09636,1.018251 -8.0625,3.0625 -1.95313,2.044288 -2.9375,4.838556 -2.9375,8.40625 0,3.515632 0.96614,6.304692 2.90625,8.375 1.9401,2.070313 4.58072,3.124999 7.875,3.125 1.21092,-1e-6 2.33853,-0.109375 3.40625,-0.34375 1.08071,-0.234375 2.12238,-0.59375 3.125,-1.0625 l 0,-3.3125 c -1.01564,0.559899 -2.03387,0.963545 -3.0625,1.25 -1.01564,0.27344 -2.0521,0.406252 -3.09375,0.40625 -2.33074,2e-6 -4.14845,-0.716143 -5.4375,-2.1875 -1.28907,-1.484369 -1.93751,-3.580721 -1.9375,-6.25 -10e-6,-2.669257 0.64843,-4.71613 1.9375,-6.1875 1.28905,-1.484356 3.10676,-2.249981 5.4375,-2.25 1.04165,1.9e-5 2.07811,0.151061 3.09375,0.4375 1.02863,0.273456 2.04686,0.690122 3.0625,1.25 l 0,-3.34375 c -0.9896,-0.455708 -2.00783,-0.809874 -3.0625,-1.03125 -1.0547,-0.234353 -2.14324,-0.343728 -3.25,-0.34375 z m 19.0625,0 c -3.13803,2.2e-5 -5.59115,1.000021 -7.375,3.03125 -1.77084,2.031267 -2.65625,4.843765 -2.65625,8.4375 0,3.580737 0.88541,6.393234 2.65625,8.4375 1.78385,2.03125 4.23697,3.062499 7.375,3.0625 3.12498,-1e-6 5.59113,-1.03125 7.375,-3.0625 1.78383,-2.044266 2.68748,-4.856763 2.6875,-8.4375 -2e-5,-3.593735 -0.90367,-6.406233 -2.6875,-8.4375 -1.78387,-2.031229 -4.25002,-3.031228 -7.375,-3.03125 z m 24.5,0 c -1.57553,2.2e-5 -2.94793,0.299501 -4.09375,0.9375 -1.14584,0.638042 -2.1172,1.627624 -2.9375,2.96875 l 0,-3.375 -3.625,0 0,21.875 3.625,0 0,-12.375 c -10e-6,-2.122381 0.54426,-3.794255 1.625,-5.03125 1.08072,-1.249981 2.53905,-1.874981 4.375,-1.875 1.54946,1.9e-5 2.6953,0.515644 3.4375,1.53125 0.74217,1.002621 1.09373,2.54689 1.09375,4.65625 l 0,13.09375 3.625,0 0,-12.375 c -2e-5,-2.135402 0.54425,-3.825505 1.625,-5.0625 1.08071,-1.236961 2.54425,-1.843731 4.40625,-1.84375 1.52341,1.9e-5 2.66403,0.515644 3.40625,1.53125 0.74216,1.015642 1.12497,2.559911 1.125,4.65625 l 0,13.09375 3.59375,0 0,-13.21875 c -4e-5,-2.942692 -0.60681,-5.19269 -1.84375,-6.78125 -1.23701,-1.601541 -3.00263,-2.406228 -5.28125,-2.40625 -1.69274,2.2e-5 -3.15628,0.388043 -4.40625,1.15625 -1.25002,0.76825 -2.32033,1.947936 -3.21875,3.5625 -0.53387,-1.536439 -1.38023,-2.692688 -2.5,-3.5 -1.10679,-0.80727 -2.44272,-1.218728 -4.03125,-1.21875 z m -227.46875,3.03125 c 1.77082,1.9e-5 3.18228,0.609394 4.25,1.78125 1.08071,1.171891 1.63019,2.721369 1.65625,4.6875 l -12.8125,0.03125 c 0.18229,-2.057277 0.86458,-3.648421 2.0625,-4.78125 1.21093,-1.132794 2.83853,-1.718731 4.84375,-1.71875 z m 202.96875,0 c 1.91405,1.9e-5 3.44269,0.757831 4.5625,2.28125 1.11977,1.510432 1.68748,3.565118 1.6875,6.15625 -2e-5,2.604175 -0.56773,4.67709 -1.6875,6.1875 -1.11981,1.51042 -2.64845,2.250002 -4.5625,2.25 -1.94011,2e-6 -3.44272,-0.752601 -4.5625,-2.25 -1.10678,-1.51041 -1.68751,-3.570304 -1.6875,-6.1875 -10e-6,-2.617174 0.5677,-4.658839 1.6875,-6.15625 1.11978,-1.510398 2.63541,-2.281231 4.5625,-2.28125 z m -268.25,1.625 c 1.24998,1.8e-5 2.263,0.398455 3.03125,1.21875 0.78123,0.807307 1.15623,1.85939 1.15625,3.1875 l -9.0625,0 c 0.20832,-1.432277 0.71614,-2.526026 1.5625,-3.28125 0.84634,-0.768212 1.95832,-1.124982 3.3125,-1.125 z m -134.71875,0.34375 c 1.52342,1.7e-5 2.69269,0.567725 3.5,1.6875 0.80727,1.106785 1.18748,2.684909 1.1875,4.78125 -2e-5,2.096363 -0.38023,3.723966 -1.1875,4.84375 -0.80731,1.106776 -1.97658,1.656254 -3.5,1.65625 -1.54949,4e-6 -2.7422,-0.549474 -3.5625,-1.65625 -0.8073,-1.119784 -1.21876,-2.747387 -1.21875,-4.84375 -1e-5,-2.096341 0.41145,-3.674465 1.21875,-4.78125 0.8203,-1.119775 2.01301,-1.687483 3.5625,-1.6875 z m 321.71875,0 c 1.52342,1.7e-5 2.69269,0.567725 3.5,1.6875 0.80727,1.106785 1.21873,2.684909 1.21875,4.78125 -2e-5,2.096363 -0.41148,3.723966 -1.21875,4.84375 -0.80731,1.106776 -1.97658,1.656254 -3.5,1.65625 -1.54949,4e-6 -2.7422,-0.549474 -3.5625,-1.65625 -0.8073,-1.119784 -1.18751,-2.747387 -1.1875,-4.84375 -10e-6,-2.096341 0.3802,-3.674465 1.1875,-4.78125 0.8203,-1.119775 2.01301,-1.687483 3.5625,-1.6875 z m -255.28125,0.0625 c 1.49738,1.7e-5 2.62498,0.562517 3.40625,1.65625 0.79425,1.093765 1.21873,2.66668 1.21875,4.75 -2e-5,2.083342 -0.4245,3.687507 -1.21875,4.78125 -0.78127,1.093755 -1.90887,1.625005 -3.40625,1.625 -1.49741,5e-6 -2.66147,-0.531245 -3.46875,-1.625 -0.79428,-1.106764 -1.18751,-2.710929 -1.1875,-4.78125 -10e-6,-2.0703 0.39322,-3.656235 1.1875,-4.75 0.80728,-1.106754 1.97134,-1.656233 3.46875,-1.65625 z m 162.09375,0 c 1.49738,1.7e-5 2.62498,0.562517 3.40625,1.65625 0.79425,1.093765 1.21873,2.66668 1.21875,4.75 -2e-5,2.083342 -0.4245,3.687507 -1.21875,4.78125 -0.78127,1.093755 -1.90887,1.625005 -3.40625,1.625 -1.49741,5e-6 -2.66147,-0.531245 -3.46875,-1.625 -0.79428,-1.106764 -1.18751,-2.710929 -1.1875,-4.78125 -10e-6,-2.0703 0.39322,-3.656235 1.1875,-4.75 0.80728,-1.106754 1.97134,-1.656233 3.46875,-1.65625 z m -137.25,7.5 3.625,0 0,0.78125 c -2e-5,1.419278 -0.44533,2.611986 -1.34375,3.5625 -0.89845,0.937505 -1.99741,1.406254 -3.3125,1.40625 -1.0547,4e-6 -1.90105,-0.255204 -2.5,-0.75 -0.58595,-0.507807 -0.87501,-1.208327 -0.875,-2.09375 -10e-6,-0.963534 0.36457,-1.6927 1.09375,-2.1875 0.74218,-0.494782 1.85415,-0.71874 3.3125,-0.71875 z m 272.96875,4.875 0,4.96875 4.125,0 0,-4.96875 -4.125,0 z"
     id="path1950-0"
     inkscape:connector-curvature="0" />
  <path
     style="fill:url(#linearGradient3845);fill-opacity:1"
     d="m 47.636067,86.109667 -43.1574473,0.008 c 0,0 -0.2971788,-4.73644 1.8569885,-12.04333 2.235098,-8.081858 7.9699208,-13.472895 16.4424638,-13.472895 9.258262,0 24.857971,0.09369 24.857971,0.09369 l 0,-3.460083 -16.75,-0.03204 -13.10805,0 c -7.335833,0 -13.4062472,-6.278483 -13.4062482,-13.625 l 0,-25.531247 c 0,-7.26634 6.3185862,-11.5403201 13.4062482,-13.6250001 8.487331,-2.49561 16.626237,-2.94663 26.78125,0 6.750155,1.95439 13.406253,5.8876101 13.40625,13.6250001 l 0,10.218747 -26.78125,0 0,3.40625 13.10805,0 13.406254,0 c 7.79246,0 10.69625,5.435408 13.40624,13.59375 2.79933,8.398886 2.68022,16.475776 0,27.249988 -1.92578,7.75744 -5.60387,13.59375 -13.40624,13.59375 z m -1.3893,-64.656239 c 2.779478,-3e-6 5.03125,-2.277417 5.03125,-5.093747 -2e-6,-2.82635 -2.251775,-5.125 -5.03125,-5.125 -2.76955,0 -5.03125,2.29865 -5.03125,5.125 2e-6,2.81633 2.261697,5.093747 5.03125,5.093747 z"
     id="path1950"
     inkscape:connector-curvature="0"
     sodipodi:nodetypes="cccscccsssccsccccsccscsssss" />
  <path
     style="fill:url(#linearGradient3862);fill-opacity:1"
     d="m 105.57693,86.109667 43.15744,0.008 c 0,0 0.29718,-4.73644 -1.85699,-12.04333 -2.23509,-8.081851 -7.96992,-13.472888 -16.44245,-13.472888 -9.25826,0 -24.85797,0.09369 -24.85797,0.09369 l 0,-3.460083 16.75,-0.03204 13.10805,0 c 7.33582,0 13.40624,-6.278483 13.40624,-13.625 l 0,-25.531247 c 0,-7.266339 -6.31859,-11.5403191 -13.40624,-13.6249991 -8.48733,-2.49561 -16.62624,-2.94663 -26.78125,0 -6.75016,1.95439 -13.406264,5.8876101 -13.406254,13.6249991 l 0,10.218747 26.781254,0 0,3.40625 -13.10805,0 -13.406264,0 c -7.792461,0 -10.696251,5.435408 -13.406241,13.59375 -2.79933,8.398886 -2.68022,16.475776 0,27.249981 1.92578,7.75744 5.60387,13.59375 13.406241,13.59375 z m 1.3893,-64.656232 c -2.77947,-3e-6 -5.03125,-2.277417 -5.03125,-5.093747 1e-5,-2.82635 2.25178,-5.124999 5.03125,-5.124999 2.76955,0 5.03125,2.298649 5.03125,5.124999 0,2.81633 -2.26169,5.093747 -5.03125,5.093747 z"
     id="path1950-1"
     inkscape:connector-curvature="0"
     sodipodi:nodetypes="cccscccsssccsccccsccscsssss" />
  <text
     xml:space="preserve"
     style="font-size:40px;font-style:normal;font-weight:normal;line-height:125%;letter-spacing:0px;word-spacing:0px;fill:#000000;fill-opacity:1;stroke:none;font-family:Sans"
     x="163.96495"
     y="57.892696"
     id="text3833"
     sodipodi:linespacing="125%"><tspan
       sodipodi:role="line"
       id="tspan3835"
       x="163.96495"
       y="57.892696"
       style="word-spacing:-8px"><tspan
         style="font-weight:bold;letter-spacing:-2px;word-spacing:-8px;fill:#2a5e87;fill-opacity:1"
         id="tspan3837">compare </tspan><tspan
         style="letter-spacing:-2px;word-spacing:-8px;fill:#ffd43b;fill-opacity:1"
         id="tspan4013">the</tspan><tspan
         style="font-weight:bold;letter-spacing:-2px;word-spacing:-8px;fill:#295c84;fill-opacity:1"
         id="tspan3839"> python</tspan><tspan
         style="letter-spacing:-2px;word-spacing:-8px;fill:#ffd43b;fill-opacity:1"
         id="tspan4017">.com</tspan></tspan></text>
</svg>
